<svg xmlns="http://www.w3.org/2000/svg" version="1.1" xmlns:xlink="http://www.w3.org/1999/xlink" xmlns:svgjs="http://svgjs.dev/svgjs" width="1500" height="367" viewBox="0 0 1500 367"><g transform="matrix(1,0,0,1,-0.9090909090909918,-0.5749890468824503)"><svg viewBox="0 0 396 97" data-background-color="#ffffff" preserveAspectRatio="xMidYMid meet" height="367" width="1500" xmlns="http://www.w3.org/2000/svg" xmlns:xlink="http://www.w3.org/1999/xlink"><g id="tight-bounds" transform="matrix(1,0,0,1,0.2400000000000091,0.1519725818735651)"><svg viewBox="0 0 395.52 96.69605483625286" height="96.69605483625286" width="395.52"><g><svg viewBox="0 0 395.52 96.69605483625286" height="96.69605483625286" width="395.52"><g><svg viewBox="0 0 395.52 96.69605483625286" height="96.69605483625286" width="395.52"><g id="textblocktransform"><svg viewBox="0 0 395.52 96.69605483625286" height="96.69605483625286" width="395.52" id="textblock"><g><svg viewBox="0 0 395.52 96.69605483625286" height="96.69605483625286" width="395.52"><g transform="matrix(1,0,0,1,0,0)"><svg width="395.52" viewBox="1.67 -33.75 182.34 44.58" height="96.69605483625286" data-palette-color="#264f0b"><path d="M10-27.71L1.67-27.71 1.67-31.25 22.29-31.25 22.29-27.71 13.96-27.71 13.96 0 10 0 10-27.71ZM31.04 0L27.29 0 27.29-20.83 30.76-20.83 30.76-17.01Q31.87-18.85 33.71-19.95 35.55-21.04 38.09-21.04L38.09-21.04 39.03-17.29Q38.37-17.5 37.5-17.5L37.5-17.5Q34.58-17.5 32.81-15.64 31.04-13.78 31.04-10.35L31.04-10.35 31.04 0ZM51.84 0.28L51.84 0.28Q48.99 0.28 46.63-1.16 44.27-2.6 42.86-5.03 41.45-7.47 41.45-10.42L41.45-10.42Q41.45-13.37 42.86-15.8 44.27-18.23 46.63-19.67 48.99-21.11 51.84-21.11L51.84-21.11Q53.99-21.11 55.88-20.31 57.77-19.51 59.16-18.09L59.16-18.09 59.16-20.83 62.63-20.83 62.63 0 59.16 0 59.16-2.74Q57.77-1.35 55.88-0.54 53.99 0.28 51.84 0.28ZM52.32-3.13L52.32-3.13Q54.3-3.13 55.92-4.11 57.53-5.1 58.48-6.75 59.44-8.4 59.44-10.42L59.44-10.42Q59.44-12.43 58.48-14.08 57.53-15.73 55.92-16.72 54.3-17.71 52.32-17.71L52.32-17.71Q50.34-17.71 48.73-16.72 47.11-15.73 46.16-14.08 45.2-12.43 45.2-10.42L45.2-10.42Q45.2-8.4 46.16-6.75 47.11-5.1 48.73-4.11 50.34-3.13 52.32-3.13ZM78.22 0.28L78.22 0.28Q75.37 0.28 73.01-1.16 70.65-2.6 69.25-5.03 67.84-7.47 67.84-10.42L67.84-10.42Q67.84-13.37 69.25-15.8 70.65-18.23 73.01-19.67 75.37-21.11 78.22-21.11L78.22-21.11Q80.27-21.11 82.08-20.38 83.88-19.65 85.27-18.37L85.27-18.37 85.27-33.33 89.02-33.33 89.02 0 85.55 0 85.55-2.74Q84.16-1.35 82.27-0.54 80.37 0.28 78.22 0.28ZM78.71-3.13L78.71-3.13Q80.69-3.13 82.3-4.11 83.92-5.1 84.87-6.75 85.83-8.4 85.83-10.42L85.83-10.42Q85.83-12.43 84.87-14.08 83.92-15.73 82.3-16.72 80.69-17.71 78.71-17.71L78.71-17.71Q76.73-17.71 75.11-16.72 73.5-15.73 72.54-14.08 71.59-12.43 71.59-10.42L71.59-10.42Q71.59-8.4 72.54-6.75 73.5-5.1 75.11-4.11 76.73-3.13 78.71-3.13ZM105.61 0.42L105.61 0.42Q102.35 0.42 99.76-1.04 97.18-2.5 95.7-5.02 94.23-7.53 94.23-10.63L94.23-10.63Q94.23-13.58 95.65-15.99 97.07-18.4 99.49-19.83 101.9-21.25 104.82-21.25L104.82-21.25Q107.7-21.25 110.09-19.88 112.49-18.51 113.91-16.18 115.34-13.85 115.34-10.9L115.34-10.9 115.34-9.38 101.73-9.38Q100.82-9.38 99.89-9.44 98.95-9.51 98.05-9.65L98.05-9.65Q98.43-6.88 100.56-5 102.7-3.13 105.65-3.13L105.65-3.13Q107.63-3.13 109.33-4.03 111.03-4.93 112.07-6.42L112.07-6.42 113.11-2.15Q111.62-0.94 109.69-0.26 107.77 0.42 105.61 0.42ZM97.94-12.19L97.94-12.19Q99.82-12.5 101.73-12.5L101.73-12.5 108.64-12.5Q109.4-12.5 110.15-12.45 110.89-12.4 111.66-12.33L111.66-12.33Q111.17-14.76 109.23-16.34 107.28-17.92 104.82-17.92L104.82-17.92Q102.28-17.92 100.37-16.23 98.46-14.55 97.94-12.19ZM128.77 10.83L128.77 10.83Q126.38 10.83 124.41 10.14 122.45 9.44 120.93 8.23L120.93 8.23 121.97 3.99Q123.01 5.49 124.74 6.42 126.48 7.36 128.74 7.36L128.74 7.36Q132.24 7.36 134.41 5.24 136.58 3.13 136.58-0.21L136.58-0.21 136.58-2.74Q135.2-1.35 133.3-0.54 131.41 0.28 129.26 0.28L129.26 0.28Q126.41 0.28 124.05-1.16 121.69-2.6 120.28-5.03 118.88-7.47 118.88-10.42L118.88-10.42Q118.88-13.37 120.28-15.8 121.69-18.23 124.05-19.67 126.41-21.11 129.26-21.11L129.26-21.11Q131.41-21.11 133.3-20.31 135.2-19.51 136.58-18.09L136.58-18.09 136.58-20.83 140.06-20.83 140.06 0Q140.06 3.4 138.48 5.83 136.9 8.26 134.33 9.55 131.76 10.83 128.77 10.83ZM129.74-3.13L129.74-3.13Q131.72-3.13 133.34-4.11 134.95-5.1 135.91-6.75 136.86-8.4 136.86-10.42L136.86-10.42Q136.86-12.43 135.91-14.08 134.95-15.73 133.34-16.72 131.72-17.71 129.74-17.71L129.74-17.71Q127.77-17.71 126.15-16.72 124.54-15.73 123.58-14.08 122.63-12.43 122.63-10.42L122.63-10.42Q122.63-8.4 123.58-6.75 124.54-5.1 126.15-4.11 127.77-3.13 129.74-3.13ZM150.47 0L146.72 0 146.72-20.83 150.47-20.83 150.47 0ZM148.6-24.58L148.6-24.58Q147.55-24.58 146.83-25.31 146.1-26.04 146.1-27.08L146.1-27.08Q146.1-28.16 146.83-28.87 147.55-29.58 148.6-29.58L148.6-29.58Q149.67-29.58 150.38-28.87 151.1-28.16 151.1-27.08L151.1-27.08Q151.1-26.04 150.38-25.31 149.67-24.58 148.6-24.58ZM163.32 0L159.57 0 159.57-17.71 154.84-17.71 154.84-20.83 159.67-20.83 159.67-26.81Q159.67-30.21 161.68-31.98 163.7-33.75 166.48-33.75L166.48-33.75Q167.52-33.75 168.61-33.51 169.7-33.26 170.68-32.67L170.68-32.67 169.77-29.03Q168.32-30.63 166.37-30.63L166.37-30.63Q165.19-30.63 164.2-29.83 163.21-29.03 163.21-26.74L163.21-26.74 163.21-20.83 168.39-20.83 168.39-17.71 163.32-17.71 163.32 0ZM178.94 0L175.19 0 175.19-17.71 170.47-17.71 170.47-20.83 175.29-20.83 175.29-27.78 178.83-27.78 178.83-20.83 184.01-20.83 184.01-17.71 178.94-17.71 178.94 0Z" opacity="1" transform="matrix(1,0,0,1,0,0)" fill="#264f0b" class="wordmark-text-0" data-fill-palette-color="primary" id="text-0"></path></svg></g></svg></g></svg></g></svg></g></svg></g><defs></defs></svg><rect width="395.52" height="96.69605483625286" fill="none" stroke="none" visibility="hidden"></rect></g></svg></g></svg>